<svg xmlns="http://www.w3.org/2000/svg"  viewBox="0 0 24 24" width="24px" height="24px"><path d="M 12 3.0175781 C 5.9822266 3.0175781 1 6.9897478 1 12.017578 C 1 14.40042 2.1825464 16.528513 4 18.123047 L 4 21.46875 A 0.50005 0.50005 0 0 0 4.4121094 21.960938 C 4.4121094 21.960938 4.9431264 22.046118 5.6503906 21.853516 C 6.3006988 21.676421 7.1459468 21.216328 8.0097656 20.353516 C 9.2542427 20.752151 10.585235 21.017578 12 21.017578 C 18.017773 21.017578 23 17.045409 23 12.017578 C 23 6.9897478 18.017773 3.0175781 12 3.0175781 z M 12 4.0175781 C 17.580227 4.0175781 22 7.6574086 22 12.017578 C 22 16.377748 17.580227 20.017578 12 20.017578 C 10.58682 20.017578 9.2444393 19.780051 8.0273438 19.357422 A 0.50005 0.50005 0 0 0 7.4960938 19.492188 C 6.671709 20.390286 5.9216576 20.743527 5.3886719 20.888672 C 5.1299564 20.959126 5.1331522 20.926977 5 20.931641 L 5 17.960938 A 0.50005 0.50005 0 0 0 4.8183594 17.574219 C 3.0587859 16.119296 2 14.167567 2 12.017578 C 2 7.6574086 6.4197734 4.0175781 12 4.0175781 z"/></svg>